PathFileType	4	(X/Y/Z)	C:\Users\WrightLab\Desktop\Jo\P2_Trial12.trc
DataRate	CameraRate	NumFrames	NumMarkers	Units	OrigDataRate	OrigDataStartFrame	OrigNumFrames
100.00	100.00	       19	19	mm	100.00	164	       653
Frame#	Time	Headset_Front			Headset_Back			Headset_Left			Headset_Right			Left_Shoulder			Right_Shoulder			Sternum			C7			Left Elbow			Right Elbow			Left Wrist			Right Wrist			Left ASIS			Right ASIS			S2			Left Knee			Right Knee			Left Ankle			Right Ankle			
		X1	Y1	Z1	X2	Y2	Z2	X3	Y3	Z3	X4	Y4	Z4	X5	Y5	Z5	X6	Y6	Z6	X7	Y7	Z7	X8	Y8	Z8	X9	Y9	Z9	X10	Y10	Z10	X11	Y11	Z11	X12	Y12	Z12	X13	Y13	Z13	X14	Y14	Z14	X15	Y15	Z15	X16	Y16	Z16	X17	Y17	Z17	X18	Y18	Z18	X19	Y19	Z19	

164	1.630							-499.49176	1576.93542	-513.02631	-706.84827	1596.38306	-409.84213	-490.09326	1445.81128	-547.12256	-818.61401	1435.97461	-554.85046	-659.24591	1322.81763	-491.43594	-664.09644	1429.07275	-662.82587	-406.45850	1101.07227	-477.46332	-915.36279	1110.29700	-599.89246	-397.48581	892.08154	-380.52756	-976.03143	868.04810	-550.00525	-615.11530	1032.74451	-451.14511	-743.02930	1020.31476	-473.48682	-627.82458	940.75470	-715.70258	-494.02002	437.43073	-546.17432	-854.41669	568.41327	-454.61777	-578.84186	87.85795	-527.71503	-873.08020	183.60904	-559.76093	
165	1.640							-499.48386	1576.57251	-505.20108	-704.33148	1593.78955	-399.92471	-490.42749	1445.12598	-538.79120	-818.41571	1435.72278	-546.07898	-658.77612	1323.49365	-481.71207	-664.69702	1428.56421	-654.02124	-405.77814	1101.74512	-468.23489	-916.72583	1110.72571	-591.22339	-399.17950	893.17810	-370.06674	-977.80835	868.63159	-540.35107	-615.41516	1033.03784	-441.44650	-743.88568	1017.81653	-470.25604	-629.76703	940.35278	-707.96124	-493.46530	436.69437	-546.61047	-857.32806	573.61176	-439.98813	-575.50311	86.80871	-529.08496	-878.33990	177.61998	-530.86981	
166	1.650	-595.16040	1517.24841	-314.88846				-499.43121	1575.83716	-496.59335	-703.62311	1593.05786	-390.96198	-490.68045	1444.44202	-530.91974	-819.14679	1435.70520	-537.19244	-659.53760	1323.15649	-470.42831	-665.30591	1428.21960	-646.22540	-404.99289	1101.74988	-457.57251	-918.04095	1110.47791	-581.45087	-397.87646	896.00403	-354.50043	-979.56256	868.73651	-530.91272	-615.39081	1031.08752	-436.21841	-744.07983	1018.05365	-457.98004	-631.11932	939.42493	-699.57953	-493.72110	435.50430	-545.80560	-860.14197	577.28357	-425.80545	-571.52087	84.14974	-528.76489	-883.41785	171.70972	-502.59210	
167	1.660							-499.40994	1574.60168	-487.26816	-702.83771	1591.22241	-381.47067	-490.72644	1443.53369	-524.54791	-819.16827	1434.95764	-527.22357	-659.23309	1321.53906	-465.82318	-665.92603	1427.77710	-637.61029	-405.01379	1101.64539	-447.35159	-919.64948	1110.23828	-572.44171	-399.63181	896.20990	-342.22467	-980.95593	868.40991	-521.80646	-614.59668	1031.57996	-426.10919	-743.59698	1017.77563	-449.52585	-633.03918	938.91608	-691.96375	-492.22705	436.26529	-547.74652	-863.50415	579.39142	-412.35580	-568.43848	82.76711	-528.72076	-888.44940	165.47923	-473.07074	
168	1.670							-499.26889	1573.82556	-479.03656	-703.26239	1590.61829	-373.06415	-491.62042	1442.11169	-514.67267	-819.28516	1434.69495	-518.55469	-659.21350	1319.81201	-459.79770	-666.68213	1427.15637	-629.12799	-405.16583	1101.61670	-437.08560	-921.22443	1110.25391	-562.52698	-400.40442	896.23669	-332.26462	-982.44287	868.11597	-512.90857	-616.67126	1030.50891	-418.23505	-744.53210	1017.99731	-437.37848	-634.59375	937.55682	-683.06921	-492.76712	435.65744	-546.83691	-865.66589	580.28540	-401.26385	-561.65851	82.54741	-528.61932	-892.09094	155.78450	-447.59421	
169	1.680				-593.36694	1511.80737	-288.46402	-499.20853	1572.91479	-471.23898	-702.69183	1589.21509	-363.53537	-491.41455	1440.82312	-507.45349	-819.99078	1434.11450	-509.55457	-660.44348	1319.30273	-445.36362	-667.47369	1426.45068	-620.65778	-404.72537	1101.05396	-427.56812	-922.43195	1109.76587	-553.42181	-400.05750	898.72742	-318.19583	-984.13513	867.50629	-503.31461	-617.01642	1029.28235	-411.41690	-745.57611	1017.81891	-430.70932	-635.98444	936.48163	-674.13947	-493.13834	435.42966	-546.65875	-867.46686	579.36157	-391.01328	-559.63214	81.20728	-530.10455	-896.02063	146.62862	-423.07993	
170	1.690	-611.77472	1673.18579	-544.83972	-592.77826	1509.78821	-280.22107	-499.04532	1570.95728	-461.86929	-701.20660	1586.87000	-354.46164	-491.64465	1439.43140	-499.24051	-820.13757	1433.05115	-499.38403	-659.79492	1319.65356	-437.13895	-668.22253	1425.72046	-611.54407	-404.94174	1100.48999	-418.13031	-923.97833	1109.23401	-543.16895	-401.91080	897.36041	-313.25012	-985.75226	866.45374	-494.81824	-616.52045	1028.84094	-402.16461	-745.76849	1015.41095	-424.99942	-637.93530	935.83252	-666.43536	-494.15295	435.48499	-545.27319	-868.97949	577.68250	-383.07446	-556.10980	79.48372	-530.13074	-898.75677	142.21516	-388.95114	
171	1.700	-611.68561	1672.47034	-535.72333				-499.00357	1570.09607	-453.53735	-700.78967	1586.76331	-345.31958	-492.01569	1437.76367	-491.13403	-820.59760	1432.85352	-489.88748	-660.28369	1317.21045	-431.07730	-669.06635	1425.12952	-603.01642	-406.23389	1098.61243	-409.95212	-925.22205	1108.90625	-534.36127	-401.19058	898.08606	-297.21542	-986.64545	865.46338	-485.27579	-617.57544	1028.11218	-395.91306	-745.53101	1015.17999	-410.56772	-639.07098	933.90430	-657.45111	-495.50336	435.88037	-543.64148	-869.74597	574.12720	-375.91876	-552.89819	78.49841	-531.91150	-900.66608	135.84819	-363.36453	
172	1.710	-611.62323	1671.53040	-526.09723	-591.48822	1506.42712	-261.93039	-499.47543	1568.14526	-443.93347	-700.50232	1584.93311	-335.15347	-492.84644	1436.62939	-484.04813	-820.73383	1431.95557	-480.59665	-661.42474	1315.09387	-420.69382	-670.06976	1423.81519	-593.83258	-407.18176	1097.60388	-400.52231	-926.40649	1108.05737	-524.58569	-404.25668	899.39545	-286.44528	-986.89758	864.90118	-475.01196	-617.87714	1027.87280	-386.73657	-746.03247	1013.13757	-403.20667	-640.58063	932.74597	-648.17810	-497.49124	434.87631	-540.45282	-870.24023	568.84546	-369.41147	-550.26874	77.51805	-532.15594	-904.09528	131.70435	-335.20181	
173	1.720	-611.68890	1670.27124	-516.44897	-589.53784	1504.66650	-254.34138	-499.13358	1566.84009	-435.42270	-700.52875	1582.81458	-325.77249	-492.95313	1434.73059	-474.75516	-821.09229	1431.25940	-470.82257	-660.82385	1315.51990	-412.73483	-671.04913	1422.87280	-584.56110	-407.98300	1096.59924	-392.53577	-927.72162	1107.70569	-514.76501	-402.97061	898.56329	-276.90564	-987.96051	864.56049	-465.88147	-618.13898	1026.93994	-377.25409	-747.07355	1012.92419	-396.51251	-642.47937	932.02582	-639.49329	-498.49603	434.96487	-537.69110	-869.06958	562.50043	-363.26196	-547.37415	76.42119	-534.32300	-905.60950	130.45308	-303.45447	
174	1.730	-611.36060	1668.55017	-506.74094				-499.13309	1565.42834	-427.43890	-699.47369	1582.16284	-316.13995	-493.36508	1432.93994	-466.87720	-821.17340	1430.38696	-460.36533	-661.68793	1313.53894	-401.36069	-674.50873	1424.30750	-577.47046	-408.38037	1095.39404	-384.81839	-929.14264	1106.83899	-505.12897	-403.27832	899.11664	-269.17725	-988.83997	863.43762	-456.37790	-617.60620	1025.92334	-368.48093	-746.46344	1011.25415	-386.16266	-644.20380	931.03534	-630.46356	-499.76895	434.43411	-534.73773	-866.87756	556.08319	-358.09500	-544.28546	75.94514	-535.01929	-906.94122	129.26378	-274.85229	
175	1.740	-611.48657	1667.52625	-498.04391				-498.87006	1563.75964	-418.07489	-698.01337	1579.79541	-306.62790	-493.64642	1431.97119	-458.86948	-821.92462	1429.51831	-450.21701	-662.11365	1311.40881	-395.20502	-674.97742	1422.68689	-567.95874	-409.81641	1093.37610	-377.48563	-930.45142	1106.24719	-495.02234	-403.67838	897.81982	-260.42941	-989.16895	862.01776	-447.35599	-617.65918	1024.82056	-361.04309	-745.71393	1010.58643	-373.22153	-645.86249	928.87164	-620.92255	-500.93378	434.21976	-530.70605	-862.71136	549.90546	-354.68671	-542.53125	75.06634	-534.78595	-908.13702	128.60088	-246.19467	
176	1.750	-611.44897	1666.56738	-488.04382				-498.50906	1562.62268	-410.13818	-699.08679	1579.11816	-297.89203	-494.12936	1430.32141	-451.71176	-822.39240	1428.73584	-440.20160	-661.37585	1311.59778	-386.69452	-675.64117	1421.15942	-559.08673	-411.25922	1092.02966	-369.21530	-931.51996	1105.61963	-485.40421	-405.17191	898.38177	-250.85429	-989.33142	860.54913	-437.36801	-617.89899	1023.84485	-353.40475	-747.29041	1008.26587	-364.59946	-647.69366	927.57709	-611.52277	-502.36984	433.50616	-526.81201	-859.21484	544.81171	-351.32904	-539.86127	74.53703	-535.62518	-908.89825	131.48956	-219.52026	
177	1.760	-611.71063	1666.42505	-478.46744				-498.84387	1560.89771	-401.23257	-697.91736	1577.92993	-288.04105	-494.11807	1428.78625	-443.41422	-823.16974	1427.85181	-429.93219	-662.16370	1310.67285	-372.63364	-675.11646	1419.04810	-548.16034	-412.99637	1090.46582	-361.76263	-932.49750	1104.65564	-474.74585	-403.82391	896.88049	-244.08720	-990.28632	860.39954	-427.85162	-617.20026	1022.89893	-342.58206	-746.24066	1007.77979	-354.91983	-649.83478	927.20123	-603.04803	-503.44980	433.46289	-522.38623	-853.86060	539.70551	-347.86053	-537.91339	74.19124	-536.39227	-908.16846	136.46559	-192.54660	
178	1.770	-611.94666	1665.18628	-468.70926				-498.55994	1559.15906	-391.69876	-697.41632	1575.70789	-278.21259	-494.93701	1427.43945	-434.31415	-822.76892	1426.77222	-419.32794	-662.00916	1308.35632	-366.97186	-675.65900	1417.51550	-538.62140	-414.69809	1088.40405	-354.92316	-932.71527	1103.70459	-464.79092	-403.78040	896.29370	-234.60669	-990.67896	858.78119	-417.04602	-617.09918	1021.76178	-333.42807	-745.76740	1006.02435	-345.26410	-651.86304	925.91602	-593.10785	-504.17789	432.83780	-516.86176	-848.83124	534.55225	-344.37064	-536.12506	73.58543	-536.60797	-906.56860	143.75781	-165.78650	
179	1.780	-612.10010	1664.43591	-459.79153				-498.23288	1558.45068	-384.42245	-695.24603	1573.70435	-267.43665	-495.21289	1425.53650	-426.20407	-823.43701	1425.89148	-408.92001	-661.27722	1308.16919	-358.43686	-676.27716	1416.16589	-529.56927	-415.24475	1086.66187	-348.28238	-933.42542	1101.93823	-453.07227	-404.80521	894.26355	-228.61339	-990.34106	857.13123	-407.71939	-616.33588	1020.83838	-323.90591	-746.56171	1005.56970	-334.05295	-654.20093	924.38086	-583.04138	-505.37683	431.81400	-510.81943	-844.79572	530.19452	-341.41537	-534.95374	72.72581	-536.98828	-903.67188	150.69405	-144.05238	
180	1.790	-612.41028	1663.35278	-450.09088				-498.44537	1556.67712	-374.26617	-696.22516	1573.63147	-258.43411	-495.25775	1425.38232	-418.35330	-824.12866	1425.05859	-398.80435	-661.90381	1307.92419	-344.06351	-676.79797	1414.95325	-520.64374	-415.90094	1084.90430	-342.89822	-934.00012	1101.50684	-443.19394	-403.46786	894.96967	-222.11929	-991.65503	856.57361	-397.62247	-615.03271	1018.95636	-315.71396	-744.68030	1004.21686	-321.88370	-656.21313	922.98663	-572.95770	-506.90573	430.98434	-504.69400	-840.79193	526.00287	-338.16425	-531.93677	73.24210	-536.86584	-901.14075	161.21878	-118.89394	
181	1.800	-612.78424	1661.98767	-440.66885				-498.70786	1555.47363	-365.86566	-694.90881	1572.06250	-248.11255	-495.66772	1423.07520	-412.65634	-824.51233	1423.96997	-387.52496	-661.57257	1305.36682	-337.67993	-677.35724	1413.86890	-511.33295	-417.63470	1082.95776	-335.68262	-934.32916	1100.20459	-432.16345	-403.16238	893.20850	-212.58705	-992.21613	855.96179	-387.09924	-614.87134	1018.19226	-306.82266	-744.71320	1001.52899	-316.55804	-658.59442	922.55029	-564.10107	-506.99609	431.12274	-498.82364	-835.83875	524.54907	-333.70682	-531.34454	72.66957	-537.42792	-896.42432	173.62411	-91.06184	
182	1.810	-613.21924	1660.88489	-431.61563	-582.91937	1487.73938	-172.87659	-498.48550	1554.21423	-357.28571	-693.64307	1570.38269	-238.54494	-496.35843	1422.22290	-403.79245	-824.70343	1423.36743	-377.63104	-660.87122	1305.32751	-329.36499	-680.56970	1411.94019	-499.98358	-418.80673	1081.73743	-329.69498	-934.26868	1098.87585	-420.57083	-402.99225	890.24854	-209.89536	-992.50415	854.80347	-376.59869	-612.83459	1017.97467	-295.30197	-743.13477	1002.39905	-301.18903	-660.95740	921.22589	-553.22345	-507.77017	429.22391	-491.15106	-830.63727	523.08514	-325.83331	-529.46918	72.63254	-538.31024	-892.69446	181.21402	-72.38065	
